{
  "source": "C:\\Users\\Peter\\Desktop\\stuff\\MIUN\\quantitative_research\\video_compression\\videos\\BVI-HD\\BVI-HD_CDVL_videos\\ORIG\\Fountain_1920x1080_50fps.mp4",
  "output": "C:\\Users\\Peter\\Desktop\\stuff\\MIUN\\quantitative_research\\video_compression\\compressed_videos\\BVI-HD\\vp9\\8\\Fountain_1920x1080_50fps_vp9.webm",
  "codec": "vp9",
  "ok": "Input #0, mov,mp4,m4a,3gp,3g2,mj2, from 'C:\\Users\\Peter\\Desktop\\stuff\\MIUN\\quantitative_research\\video_compression\\videos\\BVI-HD\\BVI-HD_CDVL_videos\\ORIG\\Fountain_1920x1080_50fps.mp4':\n  Metadata:\n    major_brand     : isom\n    minor_version   : 512\n    compatible_brands: isomiso2avc1mp41\n    encoder         : Lavf54.28.101\n  Duration: 00:00:05.00, start: 0.000000, bitrate: 603457 kb/s\n  Stream #0:0[0x1](und): Video: h264 (High 4:4:4 Predictive) (avc1 / 0x31637661), yuv420p(progressive), 1920x1080, 603453 kb/s, 50 fps, 50 tbr, 50 tbn (default)\n    Metadata:\n      handler_name    : VideoHandler\n      vendor_id       : [0][0][0][0]\n[out#0/webm @ 0000027ab9ec9a00] Codec AVOption b:a (set bitrate (in bits/s)) has not been used for any stream. The most likely reason is either wrong type (e.g. a video option with no video streams) or that it is a private option of some decoder which was not actually used for any stream.\nStream mapping:\n  Stream #0:0 -> #0:0 (h264 (native) -> vp9 (libvpx-vp9))\nPress [q] to stop, [?] for help\n[libvpx-vp9 @ 0000027abaa00a00] v1.15.2-100-g40561f514\nOutput #0, webm, to 'C:\\Users\\Peter\\Desktop\\stuff\\MIUN\\quantitative_research\\video_compression\\compressed_videos\\BVI-HD\\vp9\\8\\Fountain_1920x1080_50fps_vp9.webm':\n  Metadata:\n    major_brand     : isom\n    minor_version   : 512\n    compatible_brands: isomiso2avc1mp41\n    encoder         : Lavf62.3.100\n  Stream #0:0(und): Video: vp9, yuv420p(tv, progressive), 1920x1080, q=2-31, 8000 kb/s, 50 fps, 1k tbn (default)\n    Metadata:\n      encoder         : Lavc62.11.100 libvpx-vp9\n      handler_name    : VideoHandler\n      vendor_id       : [0][0][0][0]\n    Side data:\n      cpb: bitrate max/min/avg: 0/0/0 buffer size: 8000000 vbv_delay: N/A\nframe=    0 fps=0.0 q=0.0 size=       0KiB time=N/A bitrate=N/A speed=N/A elapsed=0:00:00.50    \nframe=    1 fps=0.7 q=12.0 size=       1KiB time=00:00:00.02 bitrate= 253.6kbits/s speed=0.0146x elapsed=0:00:01.36    \nframe=    5 fps=2.6 q=51.0 size=       1KiB time=00:00:00.10 bitrate=  50.7kbits/s speed=0.0523x elapsed=0:00:01.91    \nframe=    9 fps=3.7 q=45.0 size=       1KiB time=00:00:00.18 bitrate=  28.2kbits/s speed=0.0739x elapsed=0:00:02.43    \nframe=   11 fps=3.7 q=45.0 size=       1KiB time=00:00:00.22 bitrate=  23.1kbits/s speed=0.074x elapsed=0:00:02.97    \nframe=   14 fps=4.0 q=45.0 size=       1KiB time=00:00:00.28 bitrate=  18.1kbits/s speed=0.0796x elapsed=0:00:03.51    \nframe=   18 fps=4.4 q=45.0 size=       1KiB time=00:00:00.36 bitrate=  14.1kbits/s speed=0.0888x elapsed=0:00:04.05    \nframe=   21 fps=4.6 q=44.0 size=       1KiB time=00:00:00.42 bitrate=  12.1kbits/s speed=0.0911x elapsed=0:00:04.60    \nframe=   22 fps=4.3 q=44.0 size=       1KiB time=00:00:00.44 bitrate=  11.5kbits/s speed=0.0858x elapsed=0:00:05.12    \nframe=   25 fps=4.4 q=44.0 size=       1KiB time=00:00:00.50 bitrate=  10.1kbits/s speed=0.0885x elapsed=0:00:05.65    \nframe=   29 fps=4.7 q=44.0 size=       1KiB time=00:00:00.58 bitrate=   8.7kbits/s speed=0.0939x elapsed=0:00:06.17    \nframe=   32 fps=4.8 q=45.0 size=       1KiB time=00:00:00.64 bitrate=   7.9kbits/s speed=0.0954x elapsed=0:00:06.70    \nframe=   34 fps=4.7 q=35.0 size=       1KiB time=00:00:00.68 bitrate=   7.5kbits/s speed=0.0938x elapsed=0:00:07.24    \nframe=   37 fps=4.8 q=44.0 size=       1KiB time=00:00:00.74 bitrate=   6.9kbits/s speed=0.0952x elapsed=0:00:07.77    \nframe=   39 fps=4.7 q=44.0 size=       1KiB time=00:00:00.78 bitrate=   6.5kbits/s speed=0.0939x elapsed=0:00:08.30    \nframe=   42 fps=4.8 q=45.0 size=       1KiB time=00:00:00.84 bitrate=   6.0kbits/s speed=0.0951x elapsed=0:00:08.82    \nframe=   45 fps=4.8 q=45.0 size=       1KiB time=00:00:00.90 bitrate=   5.6kbits/s speed=0.0961x elapsed=0:00:09.36    \nframe=   47 fps=4.7 q=45.0 size=       1KiB time=00:00:00.94 bitrate=   5.4kbits/s speed=0.0949x elapsed=0:00:09.90    \nframe=   50 fps=4.8 q=46.0 size=       1KiB time=00:00:01.00 bitrate=   5.1kbits/s speed=0.0959x elapsed=0:00:10.43    \nframe=   52 fps=4.7 q=33.0 size=       1KiB time=00:00:01.04 bitrate=   4.9kbits/s speed=0.0949x elapsed=0:00:10.96    \nframe=   55 fps=4.8 q=46.0 size=       1KiB time=00:00:01.10 bitrate=   4.6kbits/s speed=0.0955x elapsed=0:00:11.51    \nframe=   57 fps=4.7 q=46.0 size=       1KiB time=00:00:01.14 bitrate=   4.4kbits/s speed=0.0947x elapsed=0:00:12.04    \nframe=   60 fps=4.8 q=45.0 size=       1KiB time=00:00:01.20 bitrate=   4.2kbits/s speed=0.0954x elapsed=0:00:12.57    \nframe=   63 fps=4.8 q=45.0 size=       1KiB time=00:00:01.26 bitrate=   4.0kbits/s speed=0.0961x elapsed=0:00:13.10    \nframe=   65 fps=4.8 q=45.0 size=       1KiB time=00:00:01.30 bitrate=   3.9kbits/s speed=0.0954x elapsed=0:00:13.62    \nframe=   67 fps=4.7 q=45.0 size=       1KiB time=00:00:01.34 bitrate=   3.8kbits/s speed=0.0946x elapsed=0:00:14.16    \nframe=   70 fps=4.8 q=33.0 size=       1KiB time=00:00:01.40 bitrate=   3.6kbits/s speed=0.0953x elapsed=0:00:14.68    \nframe=   73 fps=4.8 q=44.0 size=       1KiB time=00:00:01.46 bitrate=   3.5kbits/s speed=0.0959x elapsed=0:00:15.22    \nframe=   75 fps=4.8 q=44.0 size=       1KiB time=00:00:01.50 bitrate=   3.4kbits/s speed=0.0951x elapsed=0:00:15.76    \nframe=   78 fps=4.8 q=44.0 size=       1KiB time=00:00:01.56 bitrate=   3.3kbits/s speed=0.0956x elapsed=0:00:16.31    \nframe=   81 fps=4.8 q=44.0 size=       1KiB time=00:00:01.62 bitrate=   3.1kbits/s speed=0.0963x elapsed=0:00:16.82    \nframe=   84 fps=4.8 q=44.0 size=       1KiB time=00:00:01.68 bitrate=   3.0kbits/s speed=0.0967x elapsed=0:00:17.37    \nframe=   87 fps=4.9 q=44.0 size=       1KiB time=00:00:01.74 bitrate=   2.9kbits/s speed=0.0971x elapsed=0:00:17.92    \nframe=   89 fps=4.8 q=44.0 size=       1KiB time=00:00:01.78 bitrate=   2.8kbits/s speed=0.0963x elapsed=0:00:18.47    \nframe=   92 fps=4.8 q=45.0 size=       1KiB time=00:00:01.84 bitrate=   2.8kbits/s speed=0.0968x elapsed=0:00:18.99    \nframe=   95 fps=4.9 q=45.0 size=       1KiB time=00:00:01.90 bitrate=   2.7kbits/s speed=0.0973x elapsed=0:00:19.53    \nframe=   97 fps=4.8 q=45.0 size=       1KiB time=00:00:01.94 bitrate=   2.6kbits/s speed=0.0967x elapsed=0:00:20.06    \nframe=   99 fps=4.8 q=46.0 size=       1KiB time=00:00:01.98 bitrate=   2.6kbits/s speed=0.0962x elapsed=0:00:20.59    \nframe=  102 fps=4.8 q=46.0 size=       1KiB time=00:00:02.04 bitrate=   2.5kbits/s speed=0.0965x elapsed=0:00:21.13    \nframe=  105 fps=4.8 q=46.0 size=       1KiB time=00:00:02.10 bitrate=   2.4kbits/s speed=0.097x elapsed=0:00:21.65    \nframe=  107 fps=4.8 q=46.0 size=       1KiB time=00:00:02.14 bitrate=   2.4kbits/s speed=0.0964x elapsed=0:00:22.18    \nframe=  109 fps=4.8 q=46.0 size=       1KiB time=00:00:02.18 bitrate=   2.3kbits/s speed=0.0959x elapsed=0:00:22.73    \nframe=  111 fps=4.8 q=47.0 size=       1KiB time=00:00:02.22 bitrate=   2.3kbits/s speed=0.0955x elapsed=0:00:23.24    \nframe=  114 fps=4.8 q=47.0 size=       1KiB time=00:00:02.28 bitrate=   2.2kbits/s speed=0.0959x elapsed=0:00:23.77    \nframe=  116 fps=4.8 q=47.0 size=       1KiB time=00:00:02.32 bitrate=   2.2kbits/s speed=0.0954x elapsed=0:00:24.31    \nframe=  118 fps=4.8 q=34.0 size=       1KiB time=00:00:02.36 bitrate=   2.1kbits/s speed=0.095x elapsed=0:00:24.83    \nframe=  121 fps=4.8 q=46.0 size=       1KiB time=00:00:02.42 bitrate=   2.1kbits/s speed=0.0954x elapsed=0:00:25.36    \nframe=  123 fps=4.7 q=47.0 size=       1KiB time=00:00:02.46 bitrate=   2.1kbits/s speed=0.095x elapsed=0:00:25.90    \nframe=  125 fps=4.7 q=48.0 size=       1KiB time=00:00:02.50 bitrate=   2.0kbits/s speed=0.0946x elapsed=0:00:26.43    \nframe=  128 fps=4.7 q=47.0 size=       1KiB time=00:00:02.56 bitrate=   2.0kbits/s speed=0.0949x elapsed=0:00:26.96    \nframe=  131 fps=4.8 q=46.0 size=    2560KiB time=00:00:02.62 bitrate=8004.4kbits/s speed=0.0953x elapsed=0:00:27.49    \nframe=  134 fps=4.8 q=46.0 size=    2560KiB time=00:00:02.68 bitrate=7825.2kbits/s speed=0.0956x elapsed=0:00:28.01    \nframe=  136 fps=4.8 q=46.0 size=    2560KiB time=00:00:02.72 bitrate=7710.1kbits/s speed=0.0953x elapsed=0:00:28.55    \nframe=  139 fps=4.8 q=45.0 size=    2560KiB time=00:00:02.78 bitrate=7543.7kbits/s speed=0.0956x elapsed=0:00:29.07    \nframe=  142 fps=4.8 q=45.0 size=    2560KiB time=00:00:02.82 bitrate=7436.7kbits/s speed=0.0952x elapsed=0:00:29.61    \nframe=  144 fps=4.8 q=45.0 size=    2560KiB time=00:00:02.88 bitrate=7281.8kbits/s speed=0.0955x elapsed=0:00:30.14    \nframe=  146 fps=4.8 q=45.0 size=    2560KiB time=00:00:02.92 bitrate=7182.0kbits/s speed=0.0952x elapsed=0:00:30.67    \nframe=  149 fps=4.8 q=45.0 size=    2560KiB time=00:00:02.98 bitrate=7037.4kbits/s speed=0.0955x elapsed=0:00:31.21    \nframe=  152 fps=4.8 q=45.0 size=    2560KiB time=00:00:03.04 bitrate=6898.5kbits/s speed=0.0957x elapsed=0:00:31.75    \nframe=  154 fps=4.8 q=45.0 size=    2560KiB time=00:00:03.08 bitrate=6808.9kbits/s speed=0.0954x elapsed=0:00:32.28    \nframe=  157 fps=4.8 q=45.0 size=    2560KiB time=00:00:03.14 bitrate=6678.8kbits/s speed=0.0957x elapsed=0:00:32.80    \nframe=  159 fps=4.8 q=33.0 size=    2560KiB time=00:00:03.18 bitrate=6594.8kbits/s speed=0.0954x elapsed=0:00:33.33    \nframe=  162 fps=4.8 q=45.0 size=    2560KiB time=00:00:03.24 bitrate=6472.7kbits/s speed=0.0956x elapsed=0:00:33.87    \nframe=  164 fps=4.8 q=45.0 size=    2560KiB time=00:00:03.28 bitrate=6393.8kbits/s speed=0.0953x elapsed=0:00:34.40    \nframe=  167 fps=4.8 q=45.0 size=    2560KiB time=00:00:03.34 bitrate=6278.9kbits/s speed=0.0956x elapsed=0:00:34.92    \nframe=  170 fps=4.8 q=44.0 size=    2560KiB time=00:00:03.40 bitrate=6168.1kbits/s speed=0.0959x elapsed=0:00:35.44    \nframe=  172 fps=4.8 q=44.0 size=    2560KiB time=00:00:03.44 bitrate=6096.4kbits/s speed=0.0956x elapsed=0:00:35.97    \nframe=  175 fps=4.8 q=43.0 size=    2560KiB time=00:00:03.50 bitrate=5991.9kbits/s speed=0.0959x elapsed=0:00:36.49    \nframe=  177 fps=4.8 q=32.0 size=    2560KiB time=00:00:03.54 bitrate=5924.2kbits/s speed=0.0956x elapsed=0:00:37.03    \nframe=  180 fps=4.8 q=43.0 size=    2560KiB time=00:00:03.60 bitrate=5825.4kbits/s speed=0.0959x elapsed=0:00:37.54    \nframe=  182 fps=4.8 q=43.0 size=    2560KiB time=00:00:03.64 bitrate=5761.4kbits/s speed=0.0956x elapsed=0:00:38.07    \nframe=  185 fps=4.8 q=43.0 size=    2560KiB time=00:00:03.70 bitrate=5668.0kbits/s speed=0.0958x elapsed=0:00:38.61    \nframe=  188 fps=4.8 q=43.0 size=    2560KiB time=00:00:03.76 bitrate=5577.5kbits/s speed=0.0961x elapsed=0:00:39.14    \nframe=  190 fps=4.8 q=44.0 size=    2560KiB time=00:00:03.80 bitrate=5518.8kbits/s speed=0.0958x elapsed=0:00:39.68    \nframe=  193 fps=4.8 q=44.0 size=    2560KiB time=00:00:03.86 bitrate=5433.0kbits/s speed=0.096x elapsed=0:00:40.19    \nframe=  195 fps=4.8 q=32.0 size=    2560KiB time=00:00:03.90 bitrate=5377.3kbits/s speed=0.0958x elapsed=0:00:40.71    \nframe=  198 fps=4.8 q=45.0 size=    2560KiB time=00:00:03.96 bitrate=5295.8kbits/s speed=0.096x elapsed=0:00:41.23    \nframe=  200 fps=4.8 q=45.0 size=    2560KiB time=00:00:04.00 bitrate=5242.9kbits/s speed=0.0958x elapsed=0:00:41.75    \nframe=  203 fps=4.8 q=45.0 size=    2560KiB time=00:00:04.06 bitrate=5165.4kbits/s speed=0.096x elapsed=0:00:42.27    \nframe=  206 fps=4.8 q=45.0 size=    2560KiB time=00:00:04.12 bitrate=5090.2kbits/s speed=0.0962x elapsed=0:00:42.80    \nframe=  209 fps=4.8 q=45.0 size=    2560KiB time=00:00:04.18 bitrate=5017.1kbits/s speed=0.0965x elapsed=0:00:43.32    \nframe=  212 fps=4.8 q=45.0 size=    2560KiB time=00:00:04.24 bitrate=4946.1kbits/s speed=0.0967x elapsed=0:00:43.85    \nframe=  214 fps=4.8 q=42.0 size=    2560KiB time=00:00:04.28 bitrate=4899.9kbits/s speed=0.0964x elapsed=0:00:44.39    \nframe=  217 fps=4.8 q=43.0 size=    2560KiB time=00:00:04.34 bitrate=4832.1kbits/s speed=0.0966x elapsed=0:00:44.91    \nframe=  219 fps=4.8 q=44.0 size=    2560KiB time=00:00:04.38 bitrate=4788.0kbits/s speed=0.0964x elapsed=0:00:45.45    \nframe=  221 fps=4.8 q=44.0 size=    2560KiB time=00:00:04.42 bitrate=4744.7kbits/s speed=0.0961x elapsed=0:00:46.00    \nframe=  223 fps=4.8 q=45.0 size=    2560KiB time=00:00:04.46 bitrate=4702.1kbits/s speed=0.0958x elapsed=0:00:46.53    \nframe=  224 fps=4.8 q=29.0 size=    2560KiB time=00:00:04.48 bitrate=4681.1kbits/s speed=0.0951x elapsed=0:00:47.11    \nframe=  226 fps=4.7 q=46.0 size=    2560KiB time=00:00:04.52 bitrate=4639.7kbits/s speed=0.0947x elapsed=0:00:47.72    \nframe=  226 fps=4.7 q=46.0 size=    2560KiB time=00:00:04.52 bitrate=4639.7kbits/s speed=0.0935x elapsed=0:00:48.32    \nframe=  226 fps=4.6 q=46.0 size=    2560KiB time=00:00:04.52 bitrate=4639.7kbits/s speed=0.0924x elapsed=0:00:48.91    \nframe=  226 fps=4.6 q=46.0 size=    2560KiB time=00:00:04.52 bitrate=4639.7kbits/s speed=0.0912x elapsed=0:00:49.54    \nframe=  226 fps=4.5 q=46.0 size=    2560KiB time=00:00:04.52 bitrate=4639.7kbits/s speed=0.0902x elapsed=0:00:50.09    \nframe=  226 fps=4.5 q=46.0 size=    2560KiB time=00:00:04.52 bitrate=4639.7kbits/s speed=0.0893x elapsed=0:00:50.60    \nframe=  226 fps=4.4 q=46.0 size=    2560KiB time=00:00:04.52 bitrate=4639.7kbits/s speed=0.0884x elapsed=0:00:51.12    \nframe=  226 fps=4.4 q=46.0 size=    2560KiB time=00:00:04.52 bitrate=4639.7kbits/s speed=0.0874x elapsed=0:00:51.68    \nframe=  226 fps=4.3 q=46.0 size=    2560KiB time=00:00:04.52 bitrate=4639.7kbits/s speed=0.0866x elapsed=0:00:52.21    \nframe=  226 fps=4.3 q=46.0 size=    2560KiB time=00:00:04.52 bitrate=4639.7kbits/s speed=0.0857x elapsed=0:00:52.74    \nframe=  226 fps=4.2 q=46.0 size=    2560KiB time=00:00:04.52 bitrate=4639.7kbits/s speed=0.0848x elapsed=0:00:53.29    \nframe=  226 fps=4.2 q=46.0 size=    2560KiB time=00:00:04.52 bitrate=4639.7kbits/s speed=0.084x elapsed=0:00:53.83    \nframe=  226 fps=4.2 q=46.0 size=    2560KiB time=00:00:04.52 bitrate=4639.7kbits/s speed=0.0831x elapsed=0:00:54.38    \nframe=  226 fps=4.1 q=46.0 size=    2560KiB time=00:00:04.52 bitrate=4639.7kbits/s speed=0.0822x elapsed=0:00:54.97    \n[out#0/webm @ 0000027ab9ec9a00] video:5116KiB audio:0KiB subtitle:0KiB other streams:0KiB global headers:0KiB muxing overhead: 0.047475%\nframe=  250 fps=4.5 q=47.0 Lsize=    5118KiB time=00:00:05.00 bitrate=8385.7kbits/s speed=0.0908x elapsed=0:00:55.05    \n",
  "seconds": 55.64970374107361,
  "probe_out": {}
}